<?xml version="1.0" encoding="UTF-8" standalone="no"?>
<!-- Created with Inkscape (http://www.inkscape.org/) -->

<svg
   width="170.2189mm"
   height="60.263428mm"
   viewBox="0 0 170.2189 60.263428"
   version="1.1"
   id="svg5"
   xmlns="http://www.w3.org/2000/svg"
   xmlns:svg="http://www.w3.org/2000/svg">
  <defs
     id="defs2" />
  <g
     id="layer1"
     transform="translate(-11.898031,-31.072368)">
    <g
       style="fill:#fd4f00;fill-opacity:1"
       id="g833"
       transform="matrix(0.927333,0,0,0.927333,24.719348,40.162311)">
      <path
         d="m 26.371,33.477 -0.552,-0.1 c -3.92,-0.729 -6.397,-3.1 -7.57,-6.829 -0.733,-2.324 0.597,-4.035 3.035,-4.148 1.995,-0.092 3.362,1.055 4.57,2.39 1.557,1.72 2.984,3.558 4.514,5.305 2.202,2.515 4.797,4.134 8.347,3.634 3.183,-0.448 5.958,-1.725 8.371,-3.828 0.363,-0.316 0.761,-0.592 1.144,-0.886 l -0.241,-0.284 c -2.027,0.63 -4.093,0.841 -6.205,0.735 -3.195,-0.16 -6.24,-0.828 -8.964,-2.582 -2.486,-1.601 -4.319,-3.746 -5.19,-6.611 -0.704,-2.315 0.736,-3.934 3.135,-3.6 0.948,0.133 1.746,0.56 2.463,1.165 0.583,0.493 1.143,1.015 1.738,1.493 2.8,2.25 6.712,2.375 10.265,-0.068 C 39.389,19.237 35.414,16.023 31.923,11.95 30.557,10.356 29.223,8.734 27.828,7.165 25.13,4.129 22.136,1.455 18.038,0.542 12.8,-0.623 7.745,0.14 2.893,2.361 1.926,2.804 0.997,3.319 0,4.149 c 0.494,0 0.763,0.006 1.032,0 2.446,-0.064 4.28,1.023 5.602,3.024 0.962,1.457 1.415,3.104 1.761,4.798 0.513,2.515 0.247,5.078 0.544,7.605 0.761,6.494 4.08,11.026 10.26,13.346 2.267,0.852 4.591,1.135 7.172,0.555 z M 10.751,3.852 C 9.775,4.098 8.995,3.704 8.191,2.89 9.568,2.547 10.783,2.414 12.088,2.362 11.981,3.21 11.481,3.668 10.752,3.852 Z m 32.002,37.924 c -0.085,-0.626 -0.62,-0.901 -1.04,-1.228 -1.857,-1.446 -4.03,-1.958 -6.333,-2 -1.375,-0.026 -2.735,-0.128 -4.031,-0.61 -0.595,-0.22 -1.26,-0.505 -1.244,-1.272 0.015,-0.78 0.693,-1 1.31,-1.184 0.505,-0.15 1.026,-0.247 1.6,-0.382 -1.46,-0.936 -2.886,-1.065 -4.787,-0.3 -2.993,1.202 -5.943,1.06 -8.926,-0.017 -1.684,-0.608 -3.179,-1.563 -4.735,-2.408 l -0.077,0.057 c 1.29,2.115 3.034,3.817 5.004,5.271 3.793,2.8 7.936,4.471 12.784,3.73 A 66.714,66.714 0 0 1 37,40.877 c 1.98,-0.16 3.866,0.398 5.753,0.899 z m -9.14,-30.345 c -0.105,-0.076 -0.206,-0.266 -0.42,-0.069 1.745,2.36 3.985,4.098 6.683,5.193 4.354,1.767 8.773,2.07 13.293,0.51 3.51,-1.21 6.033,-0.028 7.343,3.38 0.19,-3.955 -2.137,-6.837 -5.843,-7.401 -2.084,-0.318 -4.01,0.373 -5.962,0.94 -5.434,1.575 -10.485,0.798 -15.094,-2.553 z m 27.085,15.425 c 0.708,0.059 1.416,0.123 2.124,0.185 -1.6,-1.405 -3.55,-1.517 -5.523,-1.404 -3.003,0.17 -5.167,1.903 -7.14,3.972 -1.739,1.824 -3.31,3.87 -5.903,4.604 0.043,0.078 0.054,0.117 0.066,0.117 0.35,0.005 0.699,0.021 1.047,0.005 3.768,-0.17 7.317,-0.965 10.14,-3.7 0.89,-0.86 1.685,-1.817 2.544,-2.71 0.716,-0.746 1.584,-1.159 2.645,-1.07 z m -8.753,-4.67 c -2.812,0.246 -5.254,1.409 -7.548,2.943 -1.766,1.18 -3.654,1.738 -5.776,1.37 -0.374,-0.066 -0.75,-0.114 -1.124,-0.17 l -0.013,0.156 c 0.135,0.07 0.265,0.151 0.405,0.207 0.354,0.14 0.702,0.308 1.07,0.395 4.083,0.971 7.992,0.474 11.516,-1.803 2.221,-1.435 4.521,-1.707 7.013,-1.336 0.252,0.038 0.503,0.083 0.756,0.107 0.234,0.022 0.479,0.255 0.795,0.003 -2.179,-1.574 -4.526,-2.096 -7.094,-1.872 z M 41.896,12.642 c 1.475,0.051 2.943,-0.142 4.486,-1.059 -0.452,0.04 -0.643,0.04 -0.827,0.076 -2.126,0.424 -4.033,-0.04 -5.733,-1.383 C 39.199,9.783 38.565,9.302 37.933,8.819 35.43,6.905 32.559,6.264 29.419,6.319 c 0.05,0.154 0.054,0.26 0.108,0.315 3.417,3.455 7.371,5.836 12.369,6.008 z m 24.727,17.731 c -2.114,-2.097 -4.952,-2.367 -7.578,-0.537 1.738,0.078 3.043,0.632 4.101,1.728 a 13,13 0 0 0 1.182,1.106 c 1.6,1.29 4.311,1.352 5.896,0.155 -1.861,-0.726 -1.861,-0.726 -3.601,-2.452 z m -21.058,16.06 c -1.858,-3.46 -4.981,-4.24 -8.59,-4.008 a 9.667,9.667 0 0 1 2.977,1.39 c 0.84,0.586 1.547,1.311 2.243,2.055 1.38,1.473 3.534,2.376 4.962,2.07 -0.656,-0.412 -1.238,-0.848 -1.592,-1.507 z m 0,0 -0.006,0.006 -0.036,-0.004 0.021,0.018 0.012,0.053 z m 0,0 a 0.127,0.127 0 0 0 0.015,0.043 c 0.005,0.008 0.038,0 0.058,-0.002 z m 0,0 -0.008,0.01 0.005,0.026 0.024,0.014 z"
         fill="#fd4f00"
         id="path824"
         style="fill:#fd4f00;fill-opacity:1" />
    </g>
    <path
       d="m 158.7949,52.419686 c -0.59559,-0.205 -1.21275,-0.398965 -1.84819,-0.582402 0.10444,-0.426259 0.2003,-0.846991 0.28553,-1.260569 1.39904,-6.791145 0.4843,-12.262139 -2.63928,-14.063422 -2.99512,-1.727192 -7.89341,0.07369 -12.84046,4.378941 -0.47572,0.413985 -0.95276,0.852306 -1.4296,1.311665 -0.31772,-0.303928 -0.63493,-0.597634 -0.95133,-0.878566 -5.18464,-4.60346 -10.38145,-6.543422 -13.50196,-4.736926 -2.99226,1.7322 -3.87839,6.875451 -2.61905,13.311471 0.12161,0.621647 0.26377,1.256484 0.42452,1.901941 -0.7355,0.20879 -1.44555,0.431362 -2.12493,0.668149 -6.07844,2.119216 -9.96041,5.440539 -9.96041,8.885627 0,3.55811 4.1673,7.126952 10.49846,9.290923 0.49963,0.170765 1.01807,0.332239 1.55234,0.485526 -0.17342,0.698095 -0.32426,1.382188 -0.45088,2.049413 -1.2008,6.324318 -0.26306,11.346066 2.72124,13.067326 3.08249,1.777576 8.25579,-0.04959 13.29327,-4.452926 0.39815,-0.348073 0.79774,-0.717201 1.19803,-1.104113 0.51885,0.49963 1.03687,0.972484 1.55214,1.416009 4.87939,4.198872 9.69858,5.894389 12.68011,4.168315 3.07943,-1.782679 4.08022,-7.177234 2.78092,-13.740586 -0.0992,-0.501258 -0.21471,-1.013357 -0.3444,-1.534551 0.3633,-0.107412 0.71996,-0.218291 1.06773,-0.333561 6.58185,-2.180737 10.86422,-5.706146 10.86422,-9.311775 0,-3.457556 -4.00715,-6.801266 -10.20802,-8.935909 z m -1.42756,15.919585 c -0.31394,0.103929 -0.63606,0.204391 -0.96431,0.301784 -0.72661,-2.300305 -1.70726,-4.746335 -2.90734,-7.273509 1.14519,-2.466975 2.08794,-4.881736 2.79421,-7.167113 0.58732,0.16995 1.15735,0.3492 1.70665,0.538358 5.3129,1.828977 8.5537,4.533155 8.5537,6.616804 0,2.219465 -3.49997,5.100637 -9.18291,6.983676 z m -2.35804,4.672548 c 0.57454,2.902228 0.6566,5.526177 0.27602,7.577429 -0.34194,1.843183 -1.0296,3.072068 -1.87986,3.564239 -1.80936,1.047288 -5.67865,-0.314049 -9.85157,-3.904963 -0.47837,-0.411637 -0.96022,-0.851179 -1.4436,-1.31637 1.61774,-1.769294 3.23456,-3.826167 4.81255,-6.110527 2.77551,-0.246289 5.39772,-0.648933 7.77568,-1.198641 0.11712,0.472446 0.22116,0.935798 0.31078,1.388833 z M 131.16319,83.9725 c -1.76776,0.624309 -3.1757,0.642194 -4.02678,0.151455 -1.81099,-1.044532 -2.56386,-5.076522 -1.5369,-10.485072 0.11763,-0.619401 0.25763,-1.25567 0.419,-1.906035 2.35191,0.520066 4.95491,0.894306 7.73705,1.119853 1.58862,2.2353 3.25214,4.289926 4.92854,6.088964 -0.36626,0.353591 -0.7311,0.690221 -1.09389,1.007432 -2.22753,1.947111 -4.45977,3.328579 -6.42702,4.023403 z m -8.28176,-15.646825 c -2.79952,-0.956844 -5.11146,-2.200453 -6.69619,-3.5575 -1.42398,-1.219485 -2.14292,-2.430188 -2.14292,-3.41258 0,-2.0906 3.11683,-4.757168 8.31516,-6.56959 0.63075,-0.219919 1.29103,-0.427175 1.97624,-0.621851 0.71843,2.33699 1.66087,4.780358 2.7982,7.251123 -1.15204,2.507449 -2.10787,4.98975 -2.83335,7.354135 -0.48849,-0.140419 -0.96175,-0.288196 -1.41714,-0.443737 z m 2.77613,-18.896811 c -1.07897,-5.514225 -0.36239,-9.673956 1.44083,-10.717772 1.92075,-1.11198 6.16807,0.473468 10.6446,4.44833 0.28615,0.254053 0.57342,0.519965 0.8615,0.795073 -1.66812,1.791164 -3.31641,3.830363 -4.89093,6.052482 -2.70018,0.250272 -5.2849,0.652306 -7.66133,1.190673 -0.14941,-0.601007 -0.28175,-1.191496 -0.39467,-1.768786 z m 24.76545,6.115223 c -0.5681,-0.981273 -1.15133,-1.939347 -1.74589,-2.871263 1.83183,0.231574 3.58693,0.538977 5.23512,0.915158 -0.49482,1.585858 -1.11157,3.24396 -1.83756,4.943766 -0.52078,-0.988733 -1.07162,-1.985645 -1.65167,-2.987661 z m -10.09929,-9.83675 c 1.1313,1.225622 2.26423,2.594011 3.37856,4.078695 -1.12292,-0.05306 -2.25973,-0.08061 -3.40595,-0.08061 -1.13539,0 -2.26382,0.02696 -3.37978,0.07908 1.11545,-1.470893 2.25819,-2.837434 3.40717,-4.07716 z m -10.16398,9.853711 c -0.56748,0.984037 -1.1081,1.975534 -1.6207,2.968861 -0.71424,-1.693873 -1.32527,-3.359544 -1.82439,-4.96789 1.63808,-0.366568 3.3849,-0.666309 5.20509,-0.893484 -0.60295,0.940494 -1.19098,1.90562 -1.76,2.89231 z m 1.81242,14.656558 c -1.88058,-0.209807 -3.65366,-0.494112 -5.29133,-0.850568 0.50709,-1.637055 1.1316,-3.338285 1.86097,-5.068648 0.51393,0.992615 1.05669,1.984518 1.62765,2.970699 h 1.1e-4 c 0.58158,1.004677 1.18413,1.988807 1.8026,2.948517 z m 8.41941,6.959155 c -1.16246,-1.254238 -2.32196,-2.641631 -3.45438,-4.133978 1.0993,0.04314 2.22008,0.06518 3.35914,0.06518 1.17023,0 2.32708,-0.02636 3.46573,-0.07705 -1.11801,1.519225 -2.24685,2.908762 -3.37049,4.145835 z m 11.70651,-12.966568 c 0.76738,1.749062 1.41427,3.441409 1.9279,5.050568 -1.66465,0.379749 -3.46194,0.685619 -5.35561,0.912904 0.596,-0.944487 1.18433,-1.919013 1.76244,-2.921444 0.58486,-1.014179 1.14019,-2.029892 1.66527,-3.042028 z m -3.78979,1.81672 c -0.89747,1.556115 -1.81886,3.041622 -2.75424,4.443831 -1.70369,0.121814 -3.46379,0.184564 -5.25772,0.184564 -1.78667,0 -3.52459,-0.05552 -5.19813,-0.164128 -0.9731,-1.420603 -1.91452,-2.9105 -2.80627,-4.450882 h 2.1e-4 c -0.8894,-1.536187 -1.70798,-3.085359 -2.44971,-4.625844 0.74152,-1.544052 1.55795,-3.094962 2.44225,-4.628394 l -2.1e-4,3.13e-4 c 0.88664,-1.537517 1.81978,-3.020159 2.78388,-4.431879 1.70747,-0.129069 3.45837,-0.196414 5.22787,-0.196414 h 1.1e-4 c 1.77748,0 3.53062,0.0679 5.23758,0.19805 0.94939,1.401396 1.87619,2.879232 2.76631,4.416961 0.90023,1.554996 1.72719,3.095573 2.47505,4.606526 -0.74561,1.536907 -1.57073,3.093021 -2.46698,4.647305 z m 5.05956,-27.388788 c 1.92259,1.10871 2.67024,5.580137 1.4623,11.443554 -0.077,0.374138 -0.16382,0.755217 -0.25804,1.141417 -2.38195,-0.549607 -4.9685,-0.958591 -7.67655,-1.212644 -1.57759,-2.246548 -3.21239,-4.288908 -4.85334,-6.057076 0.44118,-0.424419 0.88174,-0.829106 1.32046,-1.211008 4.23863,-3.68872 8.20021,-5.145096 10.00517,-4.104243 z M 140.29633,56.22879 c 2.83141,0 5.12681,2.295295 5.12681,5.126805 0,2.831407 -2.2954,5.126795 -5.12681,5.126795 -2.83141,0 -5.1268,-2.295388 -5.1268,-5.126795 0,-2.83151 2.29539,-5.126805 5.1268,-5.126805 z"
       fill="#00d8ff"
       id="path835"
       style="stroke-width:0.22427" />
    <rect
       style="fill:#fd4f00;fill-opacity:1;stroke:#ffffff;stroke-width:0;stroke-linecap:square;paint-order:markers stroke fill"
       id="rect891"
       width="2.1190877"
       height="14.501595"
       x="98.062874"
       y="53.367226" />
    <rect
       style="fill:#fd4f00;fill-opacity:1;stroke:#ffffff;stroke-width:0;stroke-linecap:square;paint-order:markers stroke fill"
       id="rect891-6"
       width="2.1190877"
       height="14.501595"
       x="59.036346"
       y="-106.4326"
       transform="rotate(89.974389)" />
  </g>
</svg>
