<?xml version="1.0" encoding="UTF-8" standalone="no"?>
<svg
   version="1.1"
   id="Layer_1"
   x="0px"
   y="0px"
   width="350"
   viewBox="0 0 350 530"
   enable-background="new 0 0 1024 1024"
   xml:space="preserve"
   sodipodi:docname="scarfsage-logo-sm.svg"
   height="530"
   inkscape:version="1.1.2 (0a00cf5339, 2022-02-04)"
   xmlns:inkscape="http://www.inkscape.org/namespaces/inkscape"
   xmlns:sodipodi="http://sodipodi.sourceforge.net/DTD/sodipodi-0.dtd"
   xmlns="http://www.w3.org/2000/svg"
   xmlns:svg="http://www.w3.org/2000/svg"><defs
   id="defs17" /><sodipodi:namedview
   id="namedview15"
   pagecolor="#ffffff"
   bordercolor="#666666"
   borderopacity="1.0"
   inkscape:pageshadow="2"
   inkscape:pageopacity="0.0"
   inkscape:pagecheckerboard="0"
   showgrid="false"
   width="343.07794px"
   height="523.20691px"
   inkscape:zoom="0.70214844"
   inkscape:cx="-266.32545"
   inkscape:cy="257.06815"
   inkscape:window-width="1920"
   inkscape:window-height="1080"
   inkscape:window-x="0"
   inkscape:window-y="0"
   inkscape:window-maximized="0"
   inkscape:current-layer="Layer_1" />
<path
   fill="#000000"
   opacity="1"
   stroke="none"
   d="M 184.93784,351.86829 C 170.50748,338.89851 153.26597,331.01972 137.03992,321.54591 111.72849,306.7674 85.746014,293.05921 61.949194,275.83753 29.506934,252.35923 10.401134,220.26447 6.7808638,180.68385 0.86582384,116.01463 27.605574,66.83733 82.633554,33.12984 107.63816,17.81322 135.33323,10.30895 164.60364,8.7763102 214.25523,6.1764698 259.19456,18.89772 296.7985,52.13606 c 22.77081,20.12735 36.65759,45.429453 34.06744,77.0679 -3.78802,46.27099 -50.65185,72.75647 -88.7854,54.75738 -17.9945,-8.49344 -29.43384,-22.73309 -31.42969,-43.16382 -1.04949,-10.74444 2.70099,-19.96814 10.72699,-27.33963 0.86078,-0.79049 1.64142,-1.82507 2.95856,-1.52584 1.73627,0.39443 1.4646,1.96029 1.6659,3.24063 1.67608,10.66494 6.31738,19.51132 15.4057,25.81027 8.73419,6.05356 18.02032,6.96509 27.40747,2.40768 9.70837,-4.71338 14.68298,-12.73092 15.63861,-23.76932 1.8045,-20.843277 -18.28833,-39.79466 -33.67139,-47.27971 -35.92138,-17.47852 -96.17239,5.35898 -103.51031,56.70772 -2.96579,20.75388 4.63171,38.24189 19.03769,53.03083 10.63729,10.92007 23.96505,17.9031 37.06069,25.17758 27.07624,15.04059 55.24653,28.22513 80.83094,45.80099 31.38672,21.56195 52.14563,51.03009 57.20257,89.00537 6.89087,51.74695 -7.75317,97.33814 -45.42102,134.34717 -20.51666,20.15772 -45.52539,32.63739 -73.23303,40.11896 -24.92413,6.72998 -50.19488,8.71844 -75.72623,5.85486 -38.93719,-4.36725 -74.200156,-17.63001 -102.052326,-46.28791 -18.26831,-18.79681 -29.82709,-41.09106 -28.43778,-68.10357 1.85266,-36.02075 26.04691,-66.45642 66.80634,-66.91944 26.652766,-0.30285 48.270896,15.76661 54.925286,39.65619 4.41135,15.83698 -1.28854,33.1659 -13.78357,41.40448 -2.42343,-1.67431 -1.73608,-4.41388 -2.06042,-6.71289 -1.41004,-9.99383 -5.66272,-18.49572 -13.59562,-24.77282 -9.030566,-7.1457 -19.031276,-8.5138 -29.478846,-3.28748 -10.50631,5.25568 -15.67801,14.2981 -16.29455,25.7005 -0.79013,14.61347 6.57287,25.90369 16.46399,35.60523 15.4331,15.13726 34.589836,19.52343 55.349086,16.91369 25.1062,-3.15625 45.46862,-15.04138 59.29211,-36.49103 15.69818,-24.35864 15.44141,-55.21441 -9.21985,-77.22174 M 105.65531,71.71391 C 88.884534,82.67348 75.772444,97.097283 65.549754,114.2226 c -10.56955,17.70639 -15.4762,36.99869 -13.3244,57.41822 3.51556,33.36117 20.87344,58.64855 48.884086,76.27221 20.56729,12.94049 42.12442,24.29645 62.98215,36.7898 19.24341,11.52636 39.66412,21.24682 56.31103,36.83484 21.19251,19.84448 31.70008,44.37811 30.89686,73.10589 -0.75898,27.14881 -12.03724,50.52722 -29.47998,71.06464 -0.91437,1.07666 -2.46564,1.83941 -2.17975,3.83288 1.64532,0.87677 3.19378,0.20996 4.66626,-0.48333 3.9129,-1.84247 7.94818,-3.49518 11.65436,-5.69568 29.77178,-17.67749 49.8272,-43.05115 57.98632,-76.76892 5.94446,-24.5658 3.15595,-48.30811 -11.88153,-69.62195 -10.73687,-15.21826 -24.36554,-27.37396 -40.29925,-36.79974 -14.47211,-8.5611 -29.3335,-16.46403 -44.01935,-24.66395 -18.89789,-10.5516 -38.41284,-20.13217 -55.57651,-33.50073 -37.5805,-29.27087 -51.005576,-74.43759 -34.66415,-118.7121 6.1972,-16.79033 16.58389,-30.65932 29.67086,-42.66762 1.20188,-1.10281 3.15638,-1.93728 2.5998,-4.74801 -12.13056,3.51113 -23.04813,8.97064 -34.12125,15.83486 z"
   id="path2" />





</svg>
