<?xml version="1.0" encoding="UTF-8" standalone="no"?>
<!-- Created with Inkscape (http://www.inkscape.org/) -->

<svg
   version="1.1"
   id="svg2"
   xml:space="preserve"
   width="681"
   height="725"
   viewBox="0 0 681.00002 725.00002"
   sodipodi:docname="ttr.svg"
   inkscape:version="1.2.2 (1:1.2.2+202212051550+b0a8486541)"
   xmlns:inkscape="http://www.inkscape.org/namespaces/inkscape"
   xmlns:sodipodi="http://sodipodi.sourceforge.net/DTD/sodipodi-0.dtd"
   xmlns="http://www.w3.org/2000/svg"
   xmlns:svg="http://www.w3.org/2000/svg"
   xmlns:rdf="http://www.w3.org/1999/02/22-rdf-syntax-ns#"
   xmlns:cc="http://creativecommons.org/ns#"
   xmlns:dc="http://purl.org/dc/elements/1.1/"><metadata
     id="metadata8"><rdf:RDF><cc:Work
         rdf:about=""><dc:format>image/svg+xml</dc:format><dc:type
           rdf:resource="http://purl.org/dc/dcmitype/StillImage" /></cc:Work></rdf:RDF></metadata><defs
     id="defs6"><clipPath
       clipPathUnits="userSpaceOnUse"
       id="clipPath20"><path
         d="M 0,1000 H 1000 V 0 H 0 Z"
         id="path18"
         inkscape:connector-curvature="0" /></clipPath></defs><sodipodi:namedview
     pagecolor="#ffffff"
     bordercolor="#666666"
     borderopacity="1"
     objecttolerance="10"
     gridtolerance="10"
     guidetolerance="10"
     inkscape:pageopacity="0"
     inkscape:pageshadow="2"
     inkscape:window-width="1920"
     inkscape:window-height="1080"
     id="namedview4"
     showgrid="false"
     inkscape:zoom="0.70800007"
     inkscape:cx="568.50277"
     inkscape:cy="451.27114"
     inkscape:window-x="1920"
     inkscape:window-y="0"
     inkscape:window-maximized="0"
     inkscape:current-layer="g10"
     inkscape:showpageshadow="2"
     inkscape:pagecheckerboard="0"
     inkscape:deskcolor="#d1d1d1" /><g
     id="g10"
     inkscape:groupmode="layer"
     inkscape:label="TONTON-White-T-Black-Background"
     transform="matrix(1.3333333,0,0,-1.3333333,0,724.54405)"><g
       id="g22" /><g
       id="g26" /><path
       id="path30"
       d="m 148.80894,499.64196 c -2.68183,-0.0195 -5.46321,-0.29498 -8.33633,-0.82973 -10.8512,-2.22429 -21.19429,-7.37192 -29.9493,-14.90106 -4.89846,-4.3252 -8.69647,-9.15726 -12.374063,-13.83358 -2.396782,-3.04412 -4.65544,-5.92177 -7.15095,-8.57502 -4.580246,-5.01501 -11.980763,-11.15381 -21.379259,-11.93637 -3.688173,-0.46374 -7.34315,0.12348 -10.289986,1.65217 -3.306487,1.71915 -5.784059,4.73809 -6.624123,8.07039 -0.115476,0.48113 -0.220446,1.01868 -0.272454,1.60001 0.764256,-0.7983 1.627126,-1.53727 2.594125,-2.19562 3.618535,-2.46775 8.02583,-3.41716 12.091283,-2.60562 4.759189,0.95233 8.553012,3.86983 10.399743,8.00126 2.988267,6.62816 0.38792,14.39432 -6.283232,18.17628 -0.65495,0.29646 -1.111572,0.52148 -1.5056,0.71691 -0.787174,0.39169 -1.383385,0.68522 -2.576047,1.12328 -1.823812,0.65918 -3.792955,1.14096 -5.808051,1.42169 -4.979563,0.78836 -10.800968,-0.6322 -15.241938,-3.74589 -8.853732,-6.50891 -12.189167,-17.99301 -8.471904,-29.29749 2.131454,-6.31679 6.510413,-11.8157 12.335329,-15.48089 5.935104,-3.72483 13.867633,-5.56841 21.708528,-5.06326 3.207759,0.16232 6.56051,0.64653 10.04594,1.45809 3.642336,0.95231 6.700537,2.10224 10.198308,3.84292 6.410232,3.14681 11.360071,7.49052 15.378801,11.33956 3.12755,3.04909 5.91869,6.20733 8.37894,8.99474 l 2.69872,3.02048 c 2.94242,3.19484 5.48408,5.95543 8.15942,8.19049 5.71472,4.76078 12.61659,8.35358 18.46619,9.60733 5.1585,1.10304 8.41839,0.0871 12.61166,-3.67917 0.27767,-0.35941 0.65968,-0.81138 1.1066,-1.33557 1.19795,-1.3995 2.83058,-3.31866 3.83372,-5.19184 1.73126,-3.34803 2.6988,-6.06686 3.06285,-8.65386 1.07102,-6.03855 0.38075,-12.02756 -1.98078,-16.8844 -2.09002,-4.39228 -5.77297,-7.88869 -11.18094,-10.65539 -0.93263,-0.44718 -1.98066,-0.80719 -3.06932,-1.06142 0.90355,1.66118 1.25613,3.60407 1.04721,5.60064 -0.34731,3.03914 -2.06063,5.96895 -4.58523,7.83384 -4.4304,3.27682 -10.4004,3.97271 -15.58799,1.81715 -4.89935,-2.03962 -7.94578,-6.19208 -8.13618,-11.18307 0.0837,-4.5935 2.94883,-9.28275 7.70361,-12.7285 H 98.925293 c -4.64724,0 -8.646489,-2.37712 -10.747092,-5.84688 H 66.556188 c -2.531653,7.30721 -9.924087,12.63873 -18.759308,12.63873 -10.916429,0 -19.765193,-8.08414 -19.765193,-18.05619 0,-9.97206 8.848764,-18.0562 19.765193,-18.0562 8.835221,0 16.229829,5.33274 18.7606,12.63994 h 21.619431 c 2.100602,-3.47059 6.099377,-5.8493 10.748382,-5.8493 h 30.851877 c -4.86232,-3.44326 -7.93133,-8.12452 -7.65454,-12.80249 0.1904,-4.91398 3.23683,-9.06664 8.13618,-11.10544 5.18142,-2.15556 11.15759,-1.46089 15.58799,1.81593 2.5246,1.86738 4.23792,4.79585 4.58523,7.83749 0.19657,2.00733 -0.14366,3.93543 -1.04721,5.59578 1.08337,-0.24843 2.10752,-0.59861 2.99959,-1.02259 5.4776,-2.80563 9.16169,-6.30264 11.2623,-10.71727 2.35711,-4.8378 3.04631,-10.83161 1.95237,-16.9596 -0.34731,-2.48929 -1.31478,-5.20789 -3.02928,-8.52528 -1.01989,-1.90382 -2.65785,-3.82133 -3.85051,-5.22581 -0.44692,-0.51839 -0.77004,-1.01028 -0.78766,-0.98377 -4.51149,-4.1157 -7.77738,-5.13157 -12.9306,-4.02853 -5.8496,1.25292 -12.75147,4.84527 -18.46619,9.60853 -2.67534,2.23507 -5.217,4.99355 -8.15942,8.19171 l -2.67419,2.99137 c -2.4673,2.79568 -5.2645,5.96524 -8.42025,9.04083 -3.99582,3.82999 -8.945581,8.17098 -15.345235,11.31529 -3.525978,1.75062 -6.584059,2.90124 -10.295151,3.86598 -3.405214,0.79416 -6.758358,1.27847 -9.919398,1.43746 -7.881444,0.51012 -15.814906,-1.33346 -21.761469,-5.06325 -5.814338,-3.66272 -10.197295,-9.15878 -12.334038,-15.49545 -3.717263,-11.25976 -0.370565,-22.76685 8.535175,-29.32297 4.382792,-3.06813 10.197165,-4.48582 15.130891,-3.71071 2.078564,0.29315 4.05409,0.773 5.872613,1.43382 1.175033,0.43144 1.776966,0.72762 2.557971,1.116 0.400197,0.19875 0.851851,0.4263 1.767723,0.85278 6.415518,3.65526 9.010542,11.41463 6.027564,18.04528 -1.846731,4.1281 -5.64084,7.04319 -10.406199,7.99881 -4.059283,0.81404 -8.466292,-0.13703 -12.084827,-2.60562 -0.966999,-0.65586 -1.83604,-1.39367 -2.594125,-2.19197 0.05201,0.57885 0.156978,1.11888 0.272454,1.6 0.845353,3.33314 3.317636,6.3464 6.624123,8.06555 2.953007,1.532 6.60728,2.11951 10.429441,1.64004 9.25922,-0.76931 16.659285,-6.9081 21.269502,-11.95457 2.465541,-2.62426 4.730044,-5.50052 7.127711,-8.54712 3.671424,-4.67383 7.475044,-9.50715 12.397304,-13.85057 8.72592,-7.51092 19.07361,-12.65591 29.9777,-14.89014 6.50896,-1.21152 12.60024,-1.08415 18.0091,0.35179 5.14792,1.19578 10.27767,4.18179 15.32069,8.94258 7.57998,7.65998 12.25966,17.60367 13.17465,27.94008 0.17983,1.56845 0.26599,3.13704 0.26599,4.70298 0,8.20157 -2.39641,16.25608 -6.90173,23.05152 -1.23783,1.96322 -2.74214,3.79438 -4.46386,5.49025 h 11.27005 v -1.56241 c 0,-4.2929 2.30199,-7.77441 5.14305,-7.77441 2.54752,0 4.56789,2.84907 4.97778,6.52256 0.41078,-3.67349 2.42984,-6.52256 4.97648,-6.52256 2.54752,0 4.56659,2.84869 4.97649,6.52134 0.41078,-3.67265 2.43114,-6.52134 4.97777,-6.52134 2.84106,0 5.14307,3.48151 5.14307,7.77441 v 1.56241 h 11.97507 c 2.58842,-3.65675 6.03008,-5.93301 9.85483,-5.93301 3.82475,0 7.268,2.27626 9.85613,5.93301 h 12.37535 V 49.643055 H 327.6357 V 393.63628 h 68.38341 V 372.9041 c 0,-1.45995 0.90191,-2.64322 2.01435,-2.64322 h 11.84595 c 0.81186,0 1.47074,-0.86298 1.47074,-1.92875 v -8.62961 c 0,-1.06577 -0.65888,-1.92996 -1.47074,-1.92996 h -11.84595 c -1.11244,0 -2.01435,-1.18289 -2.01435,-2.64201 v -7.26979 c 0,-1.91541 1.18473,-3.4681 2.64449,-3.4681 h 38.66395 c 1.46064,0 2.6432,1.55269 2.6432,3.4681 v 26.98301 c 0,1.45912 -0.90191,2.642 -2.01436,2.642 h -11.98152 c -0.81186,0 -1.47074,0.86502 -1.47074,1.92997 v 8.18321 c 0,1.06494 0.65888,1.92874 1.47074,1.92874 h 11.98152 c 1.11245,0 2.01436,1.18328 2.01436,2.64322 v 1.49933 h 17.66174 c 11.26727,0 20.3992,7.75948 20.3992,17.33321 0,9.57375 -9.13193,17.33565 -20.3992,17.33565 H 296.10591 v 0.37969 c -0.40989,3.67347 -2.51031,6.47766 -5.05784,6.47766 -2.54751,0 -4.5657,-2.84906 -4.97648,-6.52255 -0.41077,3.67349 -2.42896,6.52255 -4.97648,6.52255 -2.54752,0 -4.56788,-2.84906 -4.97778,-6.52255 -0.40989,3.67349 -2.42856,6.52255 -4.9752,6.52255 -2.6361,0 -4.80481,-2.99619 -5.1056,-6.85735 h -19.04726 c -2.23932,2.17823 -4.89316,3.45355 -7.75913,3.45355 -2.86598,0 -5.51877,-1.27532 -7.75785,-3.45355 h -14.1108 c -0.30078,3.86116 -2.46904,6.85735 -5.10432,6.85735 -2.54663,0 -4.56699,-2.84786 -4.97777,-6.52133 -0.4099,3.67347 -2.42897,6.52133 -4.97649,6.52133 -2.54664,0 -4.5657,-2.84906 -4.97648,-6.52255 -0.40989,3.67349 -2.43026,6.52255 -4.97778,6.52255 -2.63528,0 -4.80223,-2.99619 -5.10302,-6.85735 h -11.32299 c 1.71004,1.68504 3.21534,3.49597 4.44191,5.44173 4.53969,6.84761 6.93659,14.91687 6.93659,23.09276 0,1.54939 -0.0859,3.10545 -0.25954,4.65567 -0.92116,10.39687 -5.6008,20.34206 -13.24953,28.06746 -4.96898,4.69205 -10.09788,7.67861 -15.15413,8.85038 -3.09752,0.82123 -6.38096,1.2199 -9.829,1.19486 z"
       style="fill:#000000;fill-opacity:1;fill-rule:nonzero;stroke:none;stroke-width:0.854383" /><g
       id="g32" /></g></svg>
